<svg xmlns="http://www.w3.org/2000/svg" viewBox="0 0 512 512" width="512" height="512">
  <defs>
    <linearGradient id="bg" x1="0%" y1="0%" x2="100%" y2="100%">
      <stop offset="0%" style="stop-color:#10B981"/>
      <stop offset="100%" style="stop-color:#059669"/>
    </linearGradient>
    <linearGradient id="leaf" x1="0%" y1="0%" x2="100%" y2="100%">
      <stop offset="0%" style="stop-color:#FFFFFF"/>
      <stop offset="100%" style="stop-color:#D1FAE5"/>
    </linearGradient>
  </defs>
  <!-- Background circle -->
  <circle cx="256" cy="256" r="256" fill="url(#bg)"/>
  <!-- Tea cup body -->
  <path d="M152 220 h168 c0 0 8 0 8 8 l-16 120 c0 16-12 28-28 28 h-96 c-16 0-28-12-28-28 l-16-120 c0-8 8-8 8-8z" fill="white" opacity="0.95"/>
  <!-- Tea cup handle -->
  <path d="M320 252 c28-4 48 12 48 40 c0 28-20 44-48 40" fill="none" stroke="white" stroke-width="16" stroke-linecap="round" opacity="0.95"/>
  <!-- Tea liquid -->
  <ellipse cx="236" cy="236" rx="72" ry="10" fill="#6EE7B7" opacity="0.6"/>
  <!-- Steam lines -->
  <path d="M200 190 c0-20 16-20 16-40" fill="none" stroke="white" stroke-width="8" stroke-linecap="round" opacity="0.6"/>
  <path d="M236 180 c0-20 16-20 16-40" fill="none" stroke="white" stroke-width="8" stroke-linecap="round" opacity="0.7"/>
  <path d="M272 190 c0-20 16-20 16-40" fill="none" stroke="white" stroke-width="8" stroke-linecap="round" opacity="0.6"/>
  <!-- Leaf accent -->
  <path d="M300 140 c20-30 60-40 80-30 c-10 30-40 50-70 50 c10-10 15-25 15-40" fill="url(#leaf)" opacity="0.9"/>
  <line x1="300" y1="140" x2="355" y2="125" stroke="#10B981" stroke-width="3" opacity="0.4"/>
</svg>
